<svg xmlns="http://www.w3.org/2000/svg" width="13" height="50" viewBox="0 0 13 50">
  <path fill="#D0C120" d="M27.9738261,130.820691 L33.8210435,124.933312 C33.8496522,124.904843 33.8752174,124.873313 33.8974348,124.839333 C33.9071739,124.824946 33.9138696,124.809027 33.922087,124.794028 C33.9327391,124.774436 33.9446087,124.75515 33.9534348,124.734334 C33.9616522,124.714437 33.9665217,124.69362 33.9726087,124.67311 C33.9777826,124.655356 33.9844783,124.638519 33.9881304,124.620152 C34.0039565,124.540867 34.0039565,124.459745 33.9881304,124.38046 C33.9844783,124.362093 33.9777826,124.345257 33.9726087,124.327502 C33.9665217,124.306992 33.9619565,124.286176 33.9534348,124.266278 C33.944913,124.245462 33.9330435,124.226176 33.922087,124.206585 C33.9138696,124.191279 33.9071739,124.17536 33.8974348,124.161279 C33.8752174,124.127606 33.8496522,124.095769 33.8210435,124.0673 L27.9738261,118.179309 C27.7361304,117.94023 27.3505217,117.94023 27.1131304,118.179309 C26.9941304,118.299002 26.9347826,118.455735 26.9347826,118.612468 C26.9347826,118.769201 26.9941304,118.925628 27.1131304,119.045321 L31.921913,123.887914 L-15.3913043,123.887914 C-15.7273043,123.887914 -16,124.162197 -16,124.500153 C-16,124.838109 -15.7273043,125.112392 -15.3913043,125.112392 L31.921913,125.112392 L27.1131304,129.954679 C26.9941304,130.074372 26.9347826,130.231105 26.9347826,130.387838 C26.9347826,130.544571 26.9941304,130.700998 27.1131304,130.820691 C27.3505217,131.05977 27.7361304,131.05977 27.9738261,130.820691 Z" transform="rotate(90 57.5 73.5)"/>
</svg>
