<svg xmlns="http://www.w3.org/2000/svg" width="51" height="14" viewBox="0 0 51 14">
  <path fill="#D0C120" d="M43.9738261,106.820691 L49.8210435,100.933312 C49.8496522,100.904843 49.8752174,100.873313 49.8974348,100.839333 C49.9071739,100.824946 49.9138696,100.809027 49.922087,100.794028 C49.9327391,100.774436 49.9446087,100.75515 49.9534348,100.734334 C49.9616522,100.714437 49.9665217,100.69362 49.9726087,100.67311 C49.9777826,100.655356 49.9844783,100.638519 49.9881304,100.620152 C50.0039565,100.540867 50.0039565,100.459745 49.9881304,100.38046 C49.9844783,100.362093 49.9777826,100.345257 49.9726087,100.327502 C49.9665217,100.306992 49.9619565,100.286176 49.9534348,100.266278 C49.944913,100.245462 49.9330435,100.226176 49.922087,100.206585 C49.9138696,100.191279 49.9071739,100.17536 49.8974348,100.161279 C49.8752174,100.127606 49.8496522,100.095769 49.8210435,100.0673 L43.9738261,94.1793094 C43.7361304,93.9402302 43.3505217,93.9402302 43.1131304,94.1793094 C42.9941304,94.2990021 42.9347826,94.4557351 42.9347826,94.6124682 C42.9347826,94.7692013 42.9941304,94.9256283 43.1131304,95.045321 L47.921913,99.8879144 L0.608695652,99.8879144 C0.272695652,99.8879144 -3.40005801e-14,100.162197 -3.40005801e-14,100.500153 C-3.40005801e-14,100.838109 0.272695652,101.112392 0.608695652,101.112392 L47.921913,101.112392 L43.1131304,105.954679 C42.9941304,106.074372 42.9347826,106.231105 42.9347826,106.387838 C42.9347826,106.544571 42.9941304,106.700998 43.1131304,106.820691 C43.3505217,107.05977 43.7361304,107.05977 43.9738261,106.820691 Z" transform="rotate(-180 25.25 53.75)"/>
</svg>
