<svg xmlns="http://www.w3.org/2000/svg" width="61" height="40" viewBox="0 0 61 40">
  <path fill="#FFF" d="M117.670747,66.0056071 C117.490115,66.0244191 117.323532,66.112252 117.205318,66.2510094 L100.183903,85.5262473 C99.9386992,85.7983859 99.9386992,86.2134087 100.183903,86.4855473 L117.205318,105.760785 C117.375559,105.952073 117.634251,106.03741 117.883948,105.98465 C118.133645,105.93189 118.336411,105.749049 118.415867,105.505 C118.495323,105.260952 118.439397,104.992773 118.269156,104.801485 L102.289416,86.7309496 L160.290774,86.7309496 C160.665467,86.7380886 161,86.3942755 161,86.0170519 C161,85.6398284 160.665467,85.2978 160.290774,85.3031542 L102.289416,85.3031542 L118.269156,67.2103094 C118.478348,66.9925559 118.528262,66.665631 118.393681,66.3946976 C118.259101,66.1237641 117.969325,65.9678034 117.670747,66.0056071 Z" transform="rotate(-180 80.5 53)"/>
</svg>
