<svg xmlns="http://www.w3.org/2000/svg" width="61" height="40" viewBox="0 0 61 40">
  <path fill="#FFF" d="M17.6707469,66.0056071 C17.4901153,66.0244191 17.3235318,66.112252 17.2053176,66.2510094 L0.183902514,85.5262473 C-0.061300838,85.7983859 -0.061300838,86.2134087 0.183902514,86.4855473 L17.2053176,105.760785 C17.3755585,105.952073 17.6342509,106.03741 17.8839478,105.98465 C18.1336446,105.93189 18.3364111,105.749049 18.415867,105.505 C18.4953229,105.260952 18.439397,104.992773 18.269156,104.801485 L2.28941609,86.7309496 L60.2907744,86.7309496 C60.6654675,86.7380886 61,86.3942755 61,86.0170519 C61,85.6398284 60.6654675,85.2978 60.2907744,85.3031542 L2.28941609,85.3031542 L18.269156,67.2103094 C18.4783476,66.9925559 18.5282616,66.665631 18.3936814,66.3946976 C18.2591013,66.1237641 17.9693246,65.9678034 17.6707469,66.0056071 Z" transform="translate(0 -66)"/>
</svg>
