<svg xmlns="http://www.w3.org/2000/svg" width="40" height="40" viewBox="0 0 40 40">
  <path fill="#FFF" d="M39.7524072,0.247605947 C39.4222834,-0.0825353156 38.8856206,-0.0825353156 38.5554968,0.247605947 L19.9991535,18.8032379 L1.44450323,0.247605947 C1.11437943,-0.0825353156 0.577716644,-0.0825353156 0.247592847,0.247605947 C-0.0825309491,0.577747209 -0.0825309491,1.11443839 0.247592847,1.44457965 L18.8022431,20.0002116 L0.247592847,38.5558436 C-0.0825309491,38.8859849 -0.0825309491,39.422676 0.247592847,39.7528173 C0.413501217,39.9187345 0.630197863,40 0.846894509,40 C1.06359115,40 1.2802878,39.9170414 1.44619617,39.7528173 L19.9991535,21.1971853 L38.5538038,39.7528173 C38.7197122,39.9187345 38.9364088,40 39.1531055,40 C39.3698021,40 39.5864988,39.9170414 39.7524072,39.7528173 C40.0825309,39.422676 40.0825309,38.8859849 39.7524072,38.5558436 L21.1960639,20.0002116 L39.7524072,1.44457965 C40.0825309,1.11443839 40.0825309,0.577747209 39.7524072,0.247605947 Z"/>
</svg>
