<svg xmlns="http://www.w3.org/2000/svg" width="13" height="8" viewBox="0 0 13 8">
  <path fill="#17368F" d="M256.146701,7.00643478 L262.034079,12.8536522 C262.062548,12.8822609 262.094079,12.9078261 262.128058,12.9300435 L262.233057,12.9860435 L262.347239,13.0207391 C262.426524,13.0365652 262.507646,13.0365652 262.586931,13.0207391 L262.701113,12.9860435 L262.806112,12.9300435 C262.839785,12.9078261 262.871622,12.8822609 262.900091,12.8536522 L268.788082,7.00643478 C269.027161,6.76873913 269.027161,6.38313043 268.788082,6.14573913 C268.668389,6.02673913 268.511656,5.9673913 268.354923,5.9673913 C268.19819,5.9673913 268.041763,6.02673913 267.92207,6.14573913 L263.079477,10.9545217 L262.467391,11.5326087 L261.855,10.9545217 L257.012712,6.14573913 C256.89302,6.02673913 256.736287,5.9673913 256.579553,5.9673913 C256.42282,5.9673913 256.266393,6.02673913 256.146701,6.14573913 C255.907622,6.38313043 255.907622,6.76873913 256.146701,7.00643478 Z" transform="translate(-256 -6)"/>
</svg>
