<svg xmlns="http://www.w3.org/2000/svg" width="31" height="27" viewBox="0 0 31 27">
  <path fill="#FFF" d="M20.8976542,23.4010442 L21.226051,23.6334213 L21.345738,23.7255876 C22.2848283,24.3906528 28.3529062,27.9823514 35.210549,23.2997163 L36,24.4120664 C28.126027,29.805279 20.9943845,25.1573103 20.466561,24.7692367 L20.4366035,24.7457714 C12.9932417,19.1840209 7.57988764,24.3008314 7.46710943,24.3008314 C6.64014043,24.9088637 5.81317143,25.376517 5.00090157,25.7304147 L5,24.1269108 C5.3837851,24.0288613 5.81347305,23.825008 6.28593348,23.4985107 L6.57736874,23.2883192 C6.88447879,23.0110144 12.8257785,17.8157145 20.8976542,23.4010442 Z M21.1132728,13.1652806 L21.1491372,13.1955317 L21.407161,13.3747941 C22.7678247,14.2542182 28.5757074,17.2850655 35.0977707,12.8315756 L35.8872182,13.9439257 C28.0132487,19.3371383 20.8816062,14.6891696 20.3537828,14.301096 L20.3238253,14.2776307 C12.8804635,8.8271152 7.57988764,13.6102206 7.35433122,13.8326907 C6.41867971,14.5206323 5.63734197,15.2925924 5.00068803,16.096766 L5.0007912,13.7398936 C5.35461175,13.554847 5.71053524,13.3434515 6.06701535,13.10286 L6.46481286,12.8201785 L6.58638232,12.7170491 C7.5404975,11.9341947 13.4771095,7.56741482 21.1132728,13.1652806 Z M21.1132728,2.80837491 L21.2248069,2.89474918 C22.1363623,3.54440716 28.2199585,7.17107745 35.0977707,2.47466988 L35.77444,3.47578497 C32.9549848,5.36678015 30.2483077,6.03419021 27.8799653,6.03419021 C23.4816152,6.03419021 20.4366035,3.80949001 20.3238253,3.80949001 C12.8804635,-1.75226051 7.35433122,3.36454996 7.35433122,3.36454996 C6.56969618,3.96647102 5.78506114,4.43544723 5.0004261,4.7714786 L5.00046509,3.39609662 C5.25792869,3.25859202 5.51539229,3.11061638 5.77285589,2.95733952 L6.56488375,2.47466988 C6.56488375,2.47466988 12.7676853,-3.30955065 21.1132728,2.80837491 Z" transform="translate(-5)"/>
</svg>
